<?xml version="1.0" standalone="no"?>
<!DOCTYPE svg PUBLIC "-//W3C//DTD SVG 20010904//EN"
 "http://www.w3.org/TR/2001/REC-SVG-20010904/DTD/svg10.dtd">
<svg version="1.0" xmlns="http://www.w3.org/2000/svg"
 width="849.000000pt" height="1280.000000pt" viewBox="0 0 849.000000 1280.000000"
 preserveAspectRatio="xMidYMid meet">
<g transform="translate(0.000000,1280.000000) scale(0.100000,-0.100000)"
fill="#000000" stroke="none">
<path d="M1855 12788 c-11 -6 -32 -21 -46 -33 -22 -18 -44 -23 -120 -28 -119
-7 -219 -36 -478 -140 -191 -76 -209 -86 -258 -135 -103 -102 -168 -282 -199
-547 -6 -50 -12 -65 -38 -88 -17 -16 -134 -77 -261 -136 -299 -140 -315 -148
-315 -167 0 -11 6 -14 17 -10 10 3 86 29 168 58 147 51 152 52 265 52 92 -1
137 -6 225 -28 61 -15 114 -31 118 -35 5 -5 -2 -46 -14 -92 -27 -106 -36 -286
-20 -399 27 -183 88 -339 196 -501 36 -54 65 -100 65 -102 0 -3 -33 -21 -72
-41 -46 -22 -111 -68 -173 -122 -115 -99 -175 -140 -224 -154 -30 -8 -45 -5
-105 23 -60 27 -81 32 -150 32 -67 0 -90 -4 -130 -25 -87 -44 -109 -101 -97
-257 5 -71 10 -86 37 -120 17 -21 56 -51 86 -66 45 -23 67 -28 126 -28 138 0
199 47 356 273 113 163 144 198 222 254 73 52 136 79 212 89 51 7 53 6 120
-44 421 -312 968 -305 1349 17 52 44 186 210 215 267 26 50 78 224 93 314 38
217 -1 454 -112 680 l-46 94 18 46 c41 106 55 176 55 271 0 113 -17 190 -65
285 -59 117 -115 178 -244 265 -189 126 -299 173 -510 216 -63 13 -117 27
-120 32 -26 38 -104 54 -146 30z"/>
<path d="M3633 10440 c-223 -31 -414 -123 -571 -274 -197 -190 -298 -424 -309
-721 -3 -85 -1 -170 6 -215 7 -41 61 -298 121 -570 60 -272 152 -697 205 -945
52 -247 104 -490 115 -540 19 -87 19 -91 1 -115 -10 -14 -157 -157 -327 -318
-170 -162 -429 -409 -576 -550 -147 -142 -274 -258 -281 -260 -8 -2 -135 122
-283 274 -193 198 -283 283 -316 300 -27 14 -48 28 -48 33 0 5 15 19 33 30 56
34 136 127 167 193 39 83 53 156 48 253 -17 278 -251 535 -573 627 -115 32
-328 33 -430 1 -80 -25 -296 -120 -362 -158 -64 -38 -143 -122 -180 -190 -30
-57 -73 -204 -73 -249 0 -40 41 -181 69 -241 85 -181 263 -326 491 -401 78
-26 98 -28 245 -28 131 -1 170 2 213 17 62 22 77 19 86 -18 12 -49 47 -89 344
-393 161 -166 292 -303 292 -307 0 -3 -20 -31 -44 -61 -108 -132 -140 -286
-96 -458 27 -107 63 -169 145 -252 81 -82 159 -125 272 -150 131 -29 246 -7
360 70 63 42 506 454 873 811 113 110 255 247 315 304 61 57 170 161 243 230
73 69 199 192 280 273 148 147 234 214 258 200 32 -18 154 -197 389 -567 141
-222 235 -357 246 -353 15 6 364 339 654 627 165 163 422 413 570 555 194 185
273 267 279 290 5 17 40 127 77 243 38 117 127 410 199 650 72 241 151 500
176 575 33 103 44 152 44 200 0 77 -28 139 -80 179 -19 14 -370 192 -780 394
-410 202 -911 449 -1115 550 -203 101 -399 195 -435 210 -36 15 -119 56 -186
91 -135 72 -228 107 -354 135 -99 22 -307 32 -397 19z m1979 -1830 c138 -38
354 -108 391 -126 20 -11 27 -22 27 -43 0 -79 -92 -495 -115 -519 -10 -12 -17
-8 -39 21 -14 18 -26 37 -26 42 0 4 -31 53 -68 109 -138 204 -318 518 -307
536 9 14 11 14 137 -20z m-4773 -1100 c267 -75 467 -273 518 -513 31 -143 -11
-293 -112 -405 -74 -83 -87 -87 -250 -87 -132 1 -146 3 -235 33 -128 45 -220
101 -310 191 -129 130 -185 265 -178 430 3 82 8 106 35 164 31 65 115 166 158
190 59 32 254 31 374 -3z"/>
<path d="M6483 6698 c-155 -150 -490 -477 -745 -727 -636 -623 -955 -932
-1278 -1239 -151 -144 -298 -288 -327 -321 -188 -211 -286 -422 -315 -674 -22
-199 10 -340 277 -1211 63 -204 157 -518 209 -697 53 -180 138 -461 190 -625
51 -165 108 -351 126 -414 17 -63 45 -162 61 -220 16 -58 48 -143 71 -190 34
-71 58 -102 147 -191 83 -84 114 -108 141 -113 20 -3 53 -16 75 -27 52 -28
136 -48 203 -49 69 0 212 41 332 95 l95 43 62 98 c101 156 129 254 120 414 -7
116 -19 164 -186 700 -73 234 -139 452 -148 485 -8 33 -48 162 -88 286 -80
244 -326 1075 -332 1124 -4 28 14 49 239 275 271 274 360 353 391 348 18 -3
32 -38 99 -243 43 -132 108 -337 144 -455 186 -607 196 -628 507 -1017 73 -92
158 -202 187 -243 29 -41 108 -142 175 -225 67 -82 176 -223 244 -313 239
-319 325 -409 444 -468 170 -83 343 -96 517 -38 80 27 90 33 170 114 100 99
148 183 179 309 27 108 26 150 -4 266 -44 171 -107 274 -339 557 -78 95 -209
261 -291 368 -251 328 -356 462 -410 525 -85 98 -101 132 -155 315 -28 96 -94
310 -147 475 -165 518 -213 674 -269 869 -50 172 -53 190 -40 210 8 11 65 73
127 136 61 63 131 143 155 177 133 184 203 480 176 739 -23 228 -70 354 -234
629 -52 88 -128 216 -169 285 -41 69 -81 126 -89 128 -9 1 -138 -117 -297
-270z m-1073 -4968 c0 -5 -5 -10 -11 -10 -5 0 -7 5 -4 10 3 6 8 10 11 10 2 0
4 -4 4 -10z"/>
</g>
</svg>
